<svg xmlns="http://www.w3.org/2000/svg" xmlns:xlink="http://www.w3.org/1999/xlink" xmlns:lucid="lucid" width="988.85" height="329"><g transform="translate(-159.49999998756618 -499.49999999272393)" lucid:page-tab-id="0_0"><path d="M0 0h1760v1360H0z" fill="#fff"/><path d="M520.5 537a5 5 0 0 1 5-5h270a5 5 0 0 1 5 5v286a5 5 0 0 1-5 5h-270a5 5 0 0 1-5-5z" fill="#fff"/><path d="M520.5 572v-35a5 5 0 0 1 5-5h270a5 5 0 0 1 5 5v35" fill="#202327"/><path d="M520.5 537a5 5 0 0 1 5-5h270a5 5 0 0 1 5 5v286a5 5 0 0 1-5 5h-270a5 5 0 0 1-5-5zM520.5 572h280M660.5 572v256" stroke="#333" fill="none"/><use xlink:href="#a" transform="matrix(1,0,0,1,530.4999394736842,532) translate(111.05 23.6)"/><use xlink:href="#b" transform="matrix(1,0,0,1,525.4999394736842,574.5) translate(58.025 17.1)"/><use xlink:href="#c" transform="matrix(1,0,0,1,665.4999394736842,574.5) translate(43.05 17.1)"/><use xlink:href="#d" transform="matrix(1,0,0,1,525.4999394736842,606.5) translate(25.049999999999997 17.1)"/><use xlink:href="#c" transform="matrix(1,0,0,1,665.4999394736842,606.5) translate(43.05 17.1)"/><use xlink:href="#e" transform="matrix(1,0,0,1,525.4999394736842,638.5) translate(22.075000000000003 17.1)"/><use xlink:href="#f" transform="matrix(1,0,0,1,665.4999394736842,638.5) translate(55 17.1)"/><use xlink:href="#g" transform="matrix(1,0,0,1,525.4999394736842,670.5) translate(29.049999999999997 17.1)"/><use xlink:href="#h" transform="matrix(1,0,0,1,665.4999394736842,670.5) translate(41.55 17.1)"/><use xlink:href="#i" transform="matrix(1,0,0,1,525.4999394736842,702.5) translate(14.074999999999996 17.1)"/><use xlink:href="#h" transform="matrix(1,0,0,1,665.4999394736842,702.5) translate(41.55 17.1)"/><use xlink:href="#j" transform="matrix(1,0,0,1,525.4999394736842,734.5) translate(50.05 17.1)"/><use xlink:href="#f" transform="matrix(1,0,0,1,665.4999394736842,734.5) translate(55 17.1)"/><use xlink:href="#k" transform="matrix(1,0,0,1,525.4999394736842,766.5) translate(45.5 17.1)"/><use xlink:href="#f" transform="matrix(1,0,0,1,665.4999394736842,766.5) translate(55 17.1)"/><use xlink:href="#l" transform="matrix(1,0,0,1,525.4999394736842,798.5) translate(40.575 17.1)"/><use xlink:href="#h" transform="matrix(1,0,0,1,665.4999394736842,798.5) translate(41.55 17.1)"/><path d="M867.85 537a5 5 0 0 1 5-5h270a5 5 0 0 1 5 5v254a5 5 0 0 1-5 5h-270a5 5 0 0 1-5-5z" fill="#fff"/><path d="M867.85 572v-35a5 5 0 0 1 5-5h270a5 5 0 0 1 5 5v35" fill="#2e86c1"/><path d="M867.85 537a5 5 0 0 1 5-5h270a5 5 0 0 1 5 5v254a5 5 0 0 1-5 5h-270a5 5 0 0 1-5-5zM867.85 572h280M1006.13 572v224" stroke="#333" fill="none"/><use xlink:href="#m" transform="matrix(1,0,0,1,877.8533261620255,532) translate(53.150000000000006 23.6)"/><use xlink:href="#n" transform="matrix(1,0,0,1,872.8533261620255,574.5) translate(37.525 17.1)"/><use xlink:href="#c" transform="matrix(1,0,0,1,1011.133160737887,574.5) translate(44.05 17.1)"/><use xlink:href="#o" transform="matrix(1,0,0,1,872.8533261620255,606.5) translate(47 17.1)"/><use xlink:href="#c" transform="matrix(1,0,0,1,1011.133160737887,606.5) translate(44.05 17.1)"/><use xlink:href="#k" transform="matrix(1,0,0,1,872.8533261620255,638.5) translate(45 17.1)"/><use xlink:href="#f" transform="matrix(1,0,0,1,1011.133160737887,638.5) translate(56 17.1)"/><use xlink:href="#p" transform="matrix(1,0,0,1,872.8533261620255,670.5) translate(39.525 17.1)"/><use xlink:href="#c" transform="matrix(1,0,0,1,1011.133160737887,670.5) translate(44.05 17.1)"/><use xlink:href="#q" transform="matrix(1,0,0,1,872.8533261620255,702.5) translate(32.55 17.1)"/><use xlink:href="#c" transform="matrix(1,0,0,1,1011.133160737887,702.5) translate(44.05 17.1)"/><use xlink:href="#r" transform="matrix(1,0,0,1,872.8533261620255,734.5) translate(18.049999999999997 17.1)"/><use xlink:href="#c" transform="matrix(1,0,0,1,1011.133160737887,734.5) translate(44.05 17.1)"/><use xlink:href="#s" transform="matrix(1,0,0,1,872.8533261620255,766.5) translate(21.574999999999996 17.1)"/><use xlink:href="#c" transform="matrix(1,0,0,1,1011.133160737887,766.5) translate(44.05 17.1)"/><path d="M160 505a5 5 0 0 1 5-5h270a5 5 0 0 1 5 5v158a5 5 0 0 1-5 5H165a5 5 0 0 1-5-5z" fill="#fff"/><path d="M160 540v-35a5 5 0 0 1 5-5h270a5 5 0 0 1 5 5v35" fill="#2e86c1"/><path d="M160 505a5 5 0 0 1 5-5h270a5 5 0 0 1 5 5v158a5 5 0 0 1-5 5H165a5 5 0 0 1-5-5zM160 540h280M298.28 540v128" stroke="#333" fill="none"/><use xlink:href="#t" transform="matrix(1,0,0,1,170,500) translate(66.1 23.6)"/><use xlink:href="#u" transform="matrix(1,0,0,1,165,542.5) translate(44.025 17.1)"/><use xlink:href="#c" transform="matrix(1,0,0,1,303.27983457586146,542.5) translate(44.05 17.1)"/><use xlink:href="#p" transform="matrix(1,0,0,1,165,574.5) translate(39.525 17.1)"/><use xlink:href="#c" transform="matrix(1,0,0,1,303.27983457586146,574.5) translate(44.05 17.1)"/><use xlink:href="#v" transform="matrix(1,0,0,1,165,606.5) translate(27.549999999999997 17.1)"/><use xlink:href="#c" transform="matrix(1,0,0,1,303.27983457586146,606.5) translate(44.05 17.1)"/><use xlink:href="#o" transform="matrix(1,0,0,1,165,638.5) translate(47 17.1)"/><use xlink:href="#c" transform="matrix(1,0,0,1,303.27983457586146,638.5) translate(44.05 17.1)"/><path d="M821 588H847.94" stroke="#333" fill="none"/><path d="M821 598v-20M801 588h20" stroke="#333" fill="#fff"/><path d="M867.13 598l-20-10 20-10" stroke="#333" fill="#fff" fill-opacity="0"/><path d="M867.13 588h-20" stroke="#333" fill="#fff"/><path d="M500 588h-40.1" stroke="#333" fill="none"/><path d="M500 578v20M520 588h-20" stroke="#333" fill="#fff"/><path d="M440.72 578l20 10-20 10" stroke="#333" fill="#fff" fill-opacity="0"/><path d="M440.72 588h20" stroke="#333" fill="#fff"/><defs><path fill="#fafafa" d="M62-99C39-31 123 0 170-40s38-139 58-208h34C234-144 253 4 115 4 49 4 18-43 31-112l26-136h34" id="w"/><path fill="#fafafa" d="M55-144c13 50 104 24 104 88C159 21 15 23 1-39l26-10c6 40 102 42 102-4-13-50-104-23-104-87 0-71 143-71 148-8l-29 4c-5-35-85-37-89 0" id="x"/><path fill="#fafafa" d="M111-194c62-3 86 47 72 106H45c-7 38 6 69 45 68 27-1 43-14 53-32l24 11C152-15 129 4 87 4 38 3 12-23 12-71c0-70 32-119 99-123zm44 81c14-66-71-72-95-28-4 8-8 17-11 28h106" id="y"/><path fill="#fafafa" d="M66-151c12-25 30-51 66-40l-6 26C45-176 58-65 38 0H6l36-190h30" id="z"/><g id="a"><use transform="matrix(0.05,0,0,0.05,0,0)" xlink:href="#w"/><use transform="matrix(0.05,0,0,0.05,12.950000000000001,0)" xlink:href="#x"/><use transform="matrix(0.05,0,0,0.05,21.950000000000003,0)" xlink:href="#y"/><use transform="matrix(0.05,0,0,0.05,31.950000000000003,0)" xlink:href="#z"/></g><path fill="#333" d="M50-231l6-30h32l-6 30H50zM6 0l37-190h31L37 0H6" id="A"/><path fill="#333" d="M133-28C103 26-5 8 13-77c13-62 24-115 90-117 29-1 46 15 56 35l19-102h32L160 0h-30zM45-64c-2 27 10 43 35 43 54-1 69-50 69-103 0-29-15-46-42-46-53-1-58 58-62 106" id="B"/><g id="b"><use transform="matrix(0.05,0,0,0.05,0,0)" xlink:href="#A"/><use transform="matrix(0.05,0,0,0.05,3.95,0)" xlink:href="#B"/></g><path fill="#333" d="M55-144c13 50 104 24 104 88C159 21 15 23 1-39l26-10c6 40 102 42 102-4-13-50-104-23-104-87 0-71 143-71 148-8l-29 4c-5-35-85-37-89 0" id="C"/><path fill="#333" d="M51-54c-9 22 5 41 31 30L79-1C43 14 10-4 19-52l22-115H19l5-23h22l19-43h21l-9 43h35l-4 23H73" id="D"/><path fill="#333" d="M66-151c12-25 30-51 66-40l-6 26C45-176 58-65 38 0H6l36-190h30" id="E"/><path fill="#333" d="M67-158c22-48 132-52 116 29L158 0h-32l25-140c3-38-53-32-70-12C52-117 51-52 38 0H6l36-190h30" id="F"/><path fill="#333" d="M103-194c29 0 47 14 56 36 2-11 5-23 8-32h30L160-5C157 61 82 97 21 62 9 55 4 45 1 30l28-7c7 42 83 31 92-3 4-16 9-38 13-55-13 20-29 36-62 36-40 0-60-25-60-64 0-71 23-131 91-131zm4 24c-53 0-58 54-61 104-2 27 10 44 36 44 49 0 65-50 67-102 1-29-15-46-42-46" id="G"/><g id="c"><use transform="matrix(0.05,0,0,0.05,0,0)" xlink:href="#C"/><use transform="matrix(0.05,0,0,0.05,9,0)" xlink:href="#D"/><use transform="matrix(0.05,0,0,0.05,14,0)" xlink:href="#E"/><use transform="matrix(0.05,0,0,0.05,19.95,0)" xlink:href="#A"/><use transform="matrix(0.05,0,0,0.05,23.9,0)" xlink:href="#F"/><use transform="matrix(0.05,0,0,0.05,33.9,0)" xlink:href="#G"/></g><path fill="#333" d="M67 3c-93-2-31-127-26-193h32L48-50c-3 39 53 32 70 12 30-34 30-101 43-152h32L157 0h-30c1-10 6-24 4-33-14 20-29 37-64 36" id="H"/><path fill="#333" d="M111-194c62-3 86 47 72 106H45c-7 38 6 69 45 68 27-1 43-14 53-32l24 11C152-15 129 4 87 4 38 3 12-23 12-71c0-70 32-119 99-123zm44 81c14-66-71-72-95-28-4 8-8 17-11 28h106" id="I"/><path fill="#333" d="M165-48c-4 18 1 34 23 27l-3 20c-29 8-62 0-52-35h-2C116-14 99 4 63 4 30 4 8-16 8-49c0-68 71-67 138-67 10-26 0-56-31-54-26 1-42 9-47 31l-32-5c8-67 160-71 144 15-5 28-9 54-15 81zM42-50c3 52 80 24 89-6 7-12 7-24 11-38-47 1-103-4-100 44" id="J"/><path fill="#333" d="M248-111c6-24 9-61-24-58-72 9-57 108-77 169h-31l26-142c3-37-50-30-64-10C52-115 50-51 37 0H6l36-190h30c-1 10-6 24-4 32 13-43 101-52 105 5 13-22 29-41 61-41 90 0 28 129 23 194h-31" id="K"/><g id="d"><use transform="matrix(0.05,0,0,0.05,0,0)" xlink:href="#H"/><use transform="matrix(0.05,0,0,0.05,10,0)" xlink:href="#C"/><use transform="matrix(0.05,0,0,0.05,19,0)" xlink:href="#I"/><use transform="matrix(0.05,0,0,0.05,29,0)" xlink:href="#E"/><use transform="matrix(0.05,0,0,0.05,34.95,0)" xlink:href="#F"/><use transform="matrix(0.05,0,0,0.05,44.95,0)" xlink:href="#J"/><use transform="matrix(0.05,0,0,0.05,54.95,0)" xlink:href="#K"/><use transform="matrix(0.05,0,0,0.05,69.9,0)" xlink:href="#I"/></g><path fill="#333" d="M6 0l50-261h32L37 0H6" id="L"/><path fill="#333" d="M30-147c31-64 166-65 159 27C183-49 158 1 86 4 9 8 1-88 30-147zM88-20c53 0 68-48 68-100 0-31-11-51-44-50-52 1-68 46-68 97 0 32 13 53 44 53" id="M"/><path fill="#333" d="M125-24c46 0 70-25 89-51l25 16C214-24 183 4 123 4 8 4-5-146 60-208c32-50 158-61 191-5 5 7 9 14 11 22l-32 10c-9-28-33-43-69-43-74 0-108 51-108 125 0 46 24 75 72 75" id="N"/><g id="e"><use transform="matrix(0.05,0,0,0.05,0,0)" xlink:href="#L"/><use transform="matrix(0.05,0,0,0.05,3.95,0)" xlink:href="#M"/><use transform="matrix(0.05,0,0,0.05,13.949999999999998,0)" xlink:href="#G"/><use transform="matrix(0.05,0,0,0.05,23.95,0)" xlink:href="#A"/><use transform="matrix(0.05,0,0,0.05,27.899999999999995,0)" xlink:href="#F"/><use transform="matrix(0.05,0,0,0.05,37.9,0)" xlink:href="#N"/><use transform="matrix(0.05,0,0,0.05,50.85,0)" xlink:href="#M"/><use transform="matrix(0.05,0,0,0.05,60.85,0)" xlink:href="#H"/><use transform="matrix(0.05,0,0,0.05,70.85,0)" xlink:href="#F"/><use transform="matrix(0.05,0,0,0.05,80.85,0)" xlink:href="#D"/></g><path fill="#333" d="M14 0l48-248h34L48 0H14" id="O"/><g id="f"><use transform="matrix(0.05,0,0,0.05,0,0)" xlink:href="#O"/><use transform="matrix(0.05,0,0,0.05,5,0)" xlink:href="#F"/><use transform="matrix(0.05,0,0,0.05,15,0)" xlink:href="#D"/></g><path fill="#333" d="M11 0l48-248h34L50-27h125l-5 27H11" id="P"/><g id="g"><use transform="matrix(0.05,0,0,0.05,0,0)" xlink:href="#L"/><use transform="matrix(0.05,0,0,0.05,3.95,0)" xlink:href="#J"/><use transform="matrix(0.05,0,0,0.05,13.949999999999998,0)" xlink:href="#C"/><use transform="matrix(0.05,0,0,0.05,22.95,0)" xlink:href="#D"/><use transform="matrix(0.05,0,0,0.05,27.950000000000003,0)" xlink:href="#P"/><use transform="matrix(0.05,0,0,0.05,37.95,0)" xlink:href="#M"/><use transform="matrix(0.05,0,0,0.05,47.95,0)" xlink:href="#G"/><use transform="matrix(0.05,0,0,0.05,57.95,0)" xlink:href="#A"/><use transform="matrix(0.05,0,0,0.05,61.900000000000006,0)" xlink:href="#F"/></g><path fill="#333" d="M194-120c59 52 2 134-86 124-53-6-90-18-98-63l31-7c8 30 29 43 70 43 46 0 84-17 71-62-32-43-135-20-137-98-3-89 178-90 191-16l-30 9c-8-48-127-53-127 5 0 53 81 35 115 65" id="Q"/><g id="h"><use transform="matrix(0.05,0,0,0.05,0,0)" xlink:href="#Q"/><use transform="matrix(0.05,0,0,0.05,12,0)" xlink:href="#D"/><use transform="matrix(0.05,0,0,0.05,17,0)" xlink:href="#E"/><use transform="matrix(0.05,0,0,0.05,22.95,0)" xlink:href="#A"/><use transform="matrix(0.05,0,0,0.05,26.899999999999995,0)" xlink:href="#F"/><use transform="matrix(0.05,0,0,0.05,36.9,0)" xlink:href="#G"/></g><path fill="#333" d="M44-68c0 29 11 47 38 47 30 0 42-19 51-41l28 9C148-21 126 4 82 4 31 4 10-29 12-85c3-77 74-140 146-93 12 8 15 23 18 40l-31 5c-1-22-13-36-36-36-52 0-65 49-65 101" id="R"/><path fill="#333" d="M248-139C247-14 144 9 11 0l48-248c105-6 190 8 189 109zm-34 0c1-70-52-87-126-82L50-27c98 7 163-21 164-112" id="S"/><g id="i"><use transform="matrix(0.05,0,0,0.05,0,0)" xlink:href="#R"/><use transform="matrix(0.05,0,0,0.05,9,0)" xlink:href="#E"/><use transform="matrix(0.05,0,0,0.05,14.949999999999998,0)" xlink:href="#I"/><use transform="matrix(0.05,0,0,0.05,24.95,0)" xlink:href="#J"/><use transform="matrix(0.05,0,0,0.05,34.95,0)" xlink:href="#D"/><use transform="matrix(0.05,0,0,0.05,39.95,0)" xlink:href="#A"/><use transform="matrix(0.05,0,0,0.05,43.900000000000006,0)" xlink:href="#M"/><use transform="matrix(0.05,0,0,0.05,53.900000000000006,0)" xlink:href="#F"/><use transform="matrix(0.05,0,0,0.05,63.900000000000006,0)" xlink:href="#S"/><use transform="matrix(0.05,0,0,0.05,76.85000000000001,0)" xlink:href="#J"/><use transform="matrix(0.05,0,0,0.05,86.85000000000001,0)" xlink:href="#D"/><use transform="matrix(0.05,0,0,0.05,91.85000000000001,0)" xlink:href="#I"/></g><g id="j"><use transform="matrix(0.05,0,0,0.05,0,0)" xlink:href="#E"/><use transform="matrix(0.05,0,0,0.05,5.95,0)" xlink:href="#M"/><use transform="matrix(0.05,0,0,0.05,15.949999999999998,0)" xlink:href="#L"/><use transform="matrix(0.05,0,0,0.05,19.9,0)" xlink:href="#I"/></g><g id="k"><use transform="matrix(0.05,0,0,0.05,0,0)" xlink:href="#C"/><use transform="matrix(0.05,0,0,0.05,9,0)" xlink:href="#D"/><use transform="matrix(0.05,0,0,0.05,14,0)" xlink:href="#J"/><use transform="matrix(0.05,0,0,0.05,24,0)" xlink:href="#D"/><use transform="matrix(0.05,0,0,0.05,29,0)" xlink:href="#I"/></g><path fill="#333" d="M67-162c32-53 139-36 121 50C175-51 163 2 97 4 68 4 52-11 42-31 38 6 28 39 22 75H-9l50-265h29c-1 10 0 20-3 28zm89 36c0-26-10-43-35-43-54 0-67 50-69 103-1 29 14 45 42 46 53 0 62-58 62-106" id="T"/><path fill="#333" d="M76-167L44 0H12l33-167H18l4-23h27c3-47 25-81 82-69l-4 24c-35-8-44 15-46 45h37l-5 23H76" id="U"/><g id="l"><use transform="matrix(0.05,0,0,0.05,0,0)" xlink:href="#T"/><use transform="matrix(0.05,0,0,0.05,10,0)" xlink:href="#E"/><use transform="matrix(0.05,0,0,0.05,15.949999999999998,0)" xlink:href="#M"/><use transform="matrix(0.05,0,0,0.05,25.950000000000003,0)" xlink:href="#U"/><use transform="matrix(0.05,0,0,0.05,30.950000000000003,0)" xlink:href="#A"/><use transform="matrix(0.05,0,0,0.05,34.9,0)" xlink:href="#L"/><use transform="matrix(0.05,0,0,0.05,38.85,0)" xlink:href="#I"/></g><path fill="#fff" d="M125-24c46 0 70-25 89-51l25 16C214-24 183 4 123 4 8 4-5-146 60-208c32-50 158-61 191-5 5 7 9 14 11 22l-32 10c-9-28-33-43-69-43-74 0-108 51-108 125 0 46 24 75 72 75" id="V"/><path fill="#fff" d="M30-147c31-64 166-65 159 27C183-49 158 1 86 4 9 8 1-88 30-147zM88-20c53 0 68-48 68-100 0-31-11-51-44-50-52 1-68 46-68 97 0 32 13 53 44 53" id="W"/><path fill="#fff" d="M67 3c-93-2-31-127-26-193h32L48-50c-3 39 53 32 70 12 30-34 30-101 43-152h32L157 0h-30c1-10 6-24 4-33-14 20-29 37-64 36" id="X"/><path fill="#fff" d="M66-151c12-25 30-51 66-40l-6 26C45-176 58-65 38 0H6l36-190h30" id="Y"/><path fill="#fff" d="M55-144c13 50 104 24 104 88C159 21 15 23 1-39l26-10c6 40 102 42 102-4-13-50-104-23-104-87 0-71 143-71 148-8l-29 4c-5-35-85-37-89 0" id="Z"/><path fill="#fff" d="M111-194c62-3 86 47 72 106H45c-7 38 6 69 45 68 27-1 43-14 53-32l24 11C152-15 129 4 87 4 38 3 12-23 12-71c0-70 32-119 99-123zm44 81c14-66-71-72-95-28-4 8-8 17-11 28h106" id="aa"/><path fill="#fff" d="M249-183c0 48-29 72-75 77L221 0h-36l-43-103H65L45 0H11l48-248c83 2 190-17 190 65zm-34 3c0-55-74-39-127-41l-18 92c63-1 145 13 145-51" id="ab"/><path fill="#fff" d="M103-194c29 0 47 14 56 36 2-11 5-23 8-32h30L160-5C157 61 82 97 21 62 9 55 4 45 1 30l28-7c7 42 83 31 92-3 4-16 9-38 13-55-13 20-29 36-62 36-40 0-60-25-60-64 0-71 23-131 91-131zm4 24c-53 0-58 54-61 104-2 27 10 44 36 44 49 0 65-50 67-102 1-29-15-46-42-46" id="ac"/><path fill="#fff" d="M50-231l6-30h32l-6 30H50zM6 0l37-190h31L37 0H6" id="ad"/><path fill="#fff" d="M51-54c-9 22 5 41 31 30L79-1C43 14 10-4 19-52l22-115H19l5-23h22l19-43h21l-9 43h35l-4 23H73" id="ae"/><path fill="#fff" d="M165-48c-4 18 1 34 23 27l-3 20c-29 8-62 0-52-35h-2C116-14 99 4 63 4 30 4 8-16 8-49c0-68 71-67 138-67 10-26 0-56-31-54-26 1-42 9-47 31l-32-5c8-67 160-71 144 15-5 28-9 54-15 81zM42-50c3 52 80 24 89-6 7-12 7-24 11-38-47 1-103-4-100 44" id="af"/><path fill="#fff" d="M67-158c22-48 132-52 116 29L158 0h-32l25-140c3-38-53-32-70-12C52-117 51-52 38 0H6l36-190h30" id="ag"/><g id="m"><use transform="matrix(0.05,0,0,0.05,0,0)" xlink:href="#V"/><use transform="matrix(0.05,0,0,0.05,12.950000000000001,0)" xlink:href="#W"/><use transform="matrix(0.05,0,0,0.05,22.950000000000003,0)" xlink:href="#X"/><use transform="matrix(0.05,0,0,0.05,32.95,0)" xlink:href="#Y"/><use transform="matrix(0.05,0,0,0.05,38.900000000000006,0)" xlink:href="#Z"/><use transform="matrix(0.05,0,0,0.05,47.900000000000006,0)" xlink:href="#aa"/><use transform="matrix(0.05,0,0,0.05,57.900000000000006,0)" xlink:href="#ab"/><use transform="matrix(0.05,0,0,0.05,70.85000000000001,0)" xlink:href="#aa"/><use transform="matrix(0.05,0,0,0.05,80.85000000000001,0)" xlink:href="#ac"/><use transform="matrix(0.05,0,0,0.05,90.85000000000001,0)" xlink:href="#ad"/><use transform="matrix(0.05,0,0,0.05,94.80000000000001,0)" xlink:href="#Z"/><use transform="matrix(0.05,0,0,0.05,103.80000000000001,0)" xlink:href="#ae"/><use transform="matrix(0.05,0,0,0.05,108.80000000000001,0)" xlink:href="#Y"/><use transform="matrix(0.05,0,0,0.05,114.75,0)" xlink:href="#af"/><use transform="matrix(0.05,0,0,0.05,124.75,0)" xlink:href="#ae"/><use transform="matrix(0.05,0,0,0.05,129.75,0)" xlink:href="#ad"/><use transform="matrix(0.05,0,0,0.05,133.7,0)" xlink:href="#W"/><use transform="matrix(0.05,0,0,0.05,143.7,0)" xlink:href="#ag"/></g><g id="n"><use transform="matrix(0.05,0,0,0.05,0,0)" xlink:href="#R"/><use transform="matrix(0.05,0,0,0.05,9,0)" xlink:href="#M"/><use transform="matrix(0.05,0,0,0.05,19,0)" xlink:href="#H"/><use transform="matrix(0.05,0,0,0.05,29,0)" xlink:href="#E"/><use transform="matrix(0.05,0,0,0.05,34.95,0)" xlink:href="#C"/><use transform="matrix(0.05,0,0,0.05,43.95,0)" xlink:href="#I"/></g><g id="o"><use transform="matrix(0.05,0,0,0.05,0,0)" xlink:href="#B"/><use transform="matrix(0.05,0,0,0.05,10,0)" xlink:href="#J"/><use transform="matrix(0.05,0,0,0.05,20,0)" xlink:href="#D"/><use transform="matrix(0.05,0,0,0.05,25,0)" xlink:href="#I"/></g><g id="p"><use transform="matrix(0.05,0,0,0.05,0,0)" xlink:href="#H"/><use transform="matrix(0.05,0,0,0.05,10,0)" xlink:href="#C"/><use transform="matrix(0.05,0,0,0.05,19,0)" xlink:href="#I"/><use transform="matrix(0.05,0,0,0.05,29,0)" xlink:href="#E"/><use transform="matrix(0.05,0,0,0.05,34.95,0)" xlink:href="#O"/><use transform="matrix(0.05,0,0,0.05,39.95,0)" xlink:href="#B"/></g><g id="q"><use transform="matrix(0.05,0,0,0.05,0,0)" xlink:href="#J"/><use transform="matrix(0.05,0,0,0.05,10,0)" xlink:href="#B"/><use transform="matrix(0.05,0,0,0.05,20,0)" xlink:href="#K"/><use transform="matrix(0.05,0,0,0.05,34.95,0)" xlink:href="#A"/><use transform="matrix(0.05,0,0,0.05,38.900000000000006,0)" xlink:href="#F"/><use transform="matrix(0.05,0,0,0.05,48.900000000000006,0)" xlink:href="#O"/><use transform="matrix(0.05,0,0,0.05,53.900000000000006,0)" xlink:href="#B"/></g><path fill="#333" d="M68-162c25-46 127-43 121 31C183-60 169 1 98 4 69 5 53-11 43-31L36 0H5l52-261h31zm88 36c2-27-9-43-34-43-55 0-70 51-70 103 0 29 15 45 43 46 52 0 58-58 61-106" id="ah"/><path fill="#333" d="M89 0H52L20-190h33L74-25l89-165h34" id="ai"/><g id="r"><use transform="matrix(0.05,0,0,0.05,0,0)" xlink:href="#M"/><use transform="matrix(0.05,0,0,0.05,10,0)" xlink:href="#ah"/><use transform="matrix(0.05,0,0,0.05,20,0)" xlink:href="#C"/><use transform="matrix(0.05,0,0,0.05,29,0)" xlink:href="#I"/><use transform="matrix(0.05,0,0,0.05,39,0)" xlink:href="#E"/><use transform="matrix(0.05,0,0,0.05,44.95,0)" xlink:href="#ai"/><use transform="matrix(0.05,0,0,0.05,53.95,0)" xlink:href="#J"/><use transform="matrix(0.05,0,0,0.05,63.95,0)" xlink:href="#D"/><use transform="matrix(0.05,0,0,0.05,68.95,0)" xlink:href="#A"/><use transform="matrix(0.05,0,0,0.05,72.9,0)" xlink:href="#M"/><use transform="matrix(0.05,0,0,0.05,82.9,0)" xlink:href="#F"/></g><g id="s"><use transform="matrix(0.05,0,0,0.05,0,0)" xlink:href="#F"/><use transform="matrix(0.05,0,0,0.05,10,0)" xlink:href="#M"/><use transform="matrix(0.05,0,0,0.05,20,0)" xlink:href="#D"/><use transform="matrix(0.05,0,0,0.05,25,0)" xlink:href="#A"/><use transform="matrix(0.05,0,0,0.05,28.950000000000003,0)" xlink:href="#U"/><use transform="matrix(0.05,0,0,0.05,33.95,0)" xlink:href="#A"/><use transform="matrix(0.05,0,0,0.05,37.900000000000006,0)" xlink:href="#R"/><use transform="matrix(0.05,0,0,0.05,46.900000000000006,0)" xlink:href="#J"/><use transform="matrix(0.05,0,0,0.05,56.900000000000006,0)" xlink:href="#D"/><use transform="matrix(0.05,0,0,0.05,61.900000000000006,0)" xlink:href="#A"/><use transform="matrix(0.05,0,0,0.05,65.85000000000001,0)" xlink:href="#M"/><use transform="matrix(0.05,0,0,0.05,75.85000000000001,0)" xlink:href="#F"/></g><path fill="#fff" d="M44-68c0 29 11 47 38 47 30 0 42-19 51-41l28 9C148-21 126 4 82 4 31 4 10-29 12-85c3-77 74-140 146-93 12 8 15 23 18 40l-31 5c-1-22-13-36-36-36-52 0-65 49-65 101" id="aj"/><path fill="#fff" d="M6 0l50-261h32L37 0H6" id="ak"/><path fill="#fff" d="M248-111c6-24 9-61-24-58-72 9-57 108-77 169h-31l26-142c3-37-50-30-64-10C52-115 50-51 37 0H6l36-190h30c-1 10-6 24-4 32 13-43 101-52 105 5 13-22 29-41 61-41 90 0 28 129 23 194h-31" id="al"/><g id="t"><use transform="matrix(0.05,0,0,0.05,0,0)" xlink:href="#aj"/><use transform="matrix(0.05,0,0,0.05,9,0)" xlink:href="#ak"/><use transform="matrix(0.05,0,0,0.05,12.949999999999998,0)" xlink:href="#af"/><use transform="matrix(0.05,0,0,0.05,22.95,0)" xlink:href="#Z"/><use transform="matrix(0.05,0,0,0.05,31.950000000000003,0)" xlink:href="#Z"/><use transform="matrix(0.05,0,0,0.05,40.95,0)" xlink:href="#V"/><use transform="matrix(0.05,0,0,0.05,53.900000000000006,0)" xlink:href="#W"/><use transform="matrix(0.05,0,0,0.05,63.900000000000006,0)" xlink:href="#al"/><use transform="matrix(0.05,0,0,0.05,78.85000000000001,0)" xlink:href="#al"/><use transform="matrix(0.05,0,0,0.05,93.80000000000001,0)" xlink:href="#aa"/><use transform="matrix(0.05,0,0,0.05,103.80000000000001,0)" xlink:href="#ag"/><use transform="matrix(0.05,0,0,0.05,113.80000000000001,0)" xlink:href="#ae"/><use transform="matrix(0.05,0,0,0.05,118.80000000000001,0)" xlink:href="#Z"/></g><g id="u"><use transform="matrix(0.05,0,0,0.05,0,0)" xlink:href="#R"/><use transform="matrix(0.05,0,0,0.05,9,0)" xlink:href="#L"/><use transform="matrix(0.05,0,0,0.05,12.949999999999998,0)" xlink:href="#J"/><use transform="matrix(0.05,0,0,0.05,22.95,0)" xlink:href="#C"/><use transform="matrix(0.05,0,0,0.05,31.950000000000003,0)" xlink:href="#C"/></g><g id="v"><use transform="matrix(0.05,0,0,0.05,0,0)" xlink:href="#R"/><use transform="matrix(0.05,0,0,0.05,9,0)" xlink:href="#M"/><use transform="matrix(0.05,0,0,0.05,19,0)" xlink:href="#K"/><use transform="matrix(0.05,0,0,0.05,33.95,0)" xlink:href="#K"/><use transform="matrix(0.05,0,0,0.05,48.900000000000006,0)" xlink:href="#I"/><use transform="matrix(0.05,0,0,0.05,58.900000000000006,0)" xlink:href="#F"/><use transform="matrix(0.05,0,0,0.05,68.9,0)" xlink:href="#D"/></g></defs></g></svg>