<svg id="visual" viewBox="0 0 900 600" width="900" height="600" xmlns="http://www.w3.org/2000/svg" xmlns:xlink="http://www.w3.org/1999/xlink" version="1.1"><g stroke-width="1" stroke-linejoin="bevel"><path d="M477 322L516 395L572 366Z" fill="#1e2023" stroke="#1e2023"></path><path d="M572 366L575 281L477 322Z" fill="#1e2023" stroke="#1e2023"></path><path d="M477 322L405 427L516 395Z" fill="#1e2023" stroke="#1e2023"></path><path d="M572 366L670 291L575 281Z" fill="#1e1f23" stroke="#1e1f23"></path><path d="M670 291L632 217L575 281Z" fill="#1f2125" stroke="#1f2125"></path><path d="M496 161L367 278L477 322Z" fill="#202327" stroke="#202327"></path><path d="M405 427L471 503L516 395Z" fill="#1f2024" stroke="#1f2024"></path><path d="M516 395L587 522L572 366Z" fill="#1e1f22" stroke="#1e1f22"></path><path d="M572 366L731 428L670 291Z" fill="#1f2124" stroke="#1f2124"></path><path d="M496 161L477 322L575 281Z" fill="#1e1f22" stroke="#1e1f22"></path><path d="M477 322L367 278L405 427Z" fill="#1f2125" stroke="#1f2125"></path><path d="M405 427L417 491L471 503Z" fill="#1f2125" stroke="#1f2125"></path><path d="M291 526L417 491L405 427Z" fill="#1f2124" stroke="#1f2124"></path><path d="M571 133L496 161L575 281Z" fill="#1f2125" stroke="#1f2125"></path><path d="M471 503L587 522L516 395Z" fill="#1e1f23" stroke="#1e1f23"></path><path d="M496 161L362 206L367 278Z" fill="#1e1f22" stroke="#1e1f22"></path><path d="M632 217L571 133L575 281Z" fill="#202327" stroke="#202327"></path><path d="M277 96L307 214L362 206Z" fill="#1f2125" stroke="#1f2125"></path><path d="M587 522L731 428L572 366Z" fill="#1e1f22" stroke="#1e1f22"></path><path d="M670 291L679 181L632 217Z" fill="#1f2124" stroke="#1f2124"></path><path d="M632 217L679 181L571 133Z" fill="#202327" stroke="#202327"></path><path d="M766 177L679 181L670 291Z" fill="#1f2125" stroke="#1f2125"></path><path d="M262 265L302 393L367 278Z" fill="#1f2124" stroke="#1f2124"></path><path d="M367 278L302 393L405 427Z" fill="#1e1f22" stroke="#1e1f22"></path><path d="M462 96L362 206L496 161Z" fill="#1e1f22" stroke="#1e1f22"></path><path d="M362 206L307 214L367 278Z" fill="#1f2125" stroke="#1f2125"></path><path d="M571 133L462 96L496 161Z" fill="#1f2024" stroke="#1f2024"></path><path d="M587 522L717 513L731 428Z" fill="#1f2125" stroke="#1f2125"></path><path d="M838 407L781 324L731 428Z" fill="#1f2226" stroke="#1f2226"></path><path d="M731 428L781 324L670 291Z" fill="#1f2024" stroke="#1f2024"></path><path d="M397 600L474 600L471 503Z" fill="#202226" stroke="#202226"></path><path d="M471 503L474 600L587 522Z" fill="#202226" stroke="#202226"></path><path d="M587 522L670 600L717 513Z" fill="#1e1f22" stroke="#1e1f22"></path><path d="M397 600L471 503L417 491Z" fill="#1e2023" stroke="#1e2023"></path><path d="M474 600L583 600L587 522Z" fill="#1f2024" stroke="#1f2024"></path><path d="M307 214L262 265L367 278Z" fill="#1f2124" stroke="#1f2124"></path><path d="M291 526L397 600L417 491Z" fill="#1f2124" stroke="#1f2124"></path><path d="M765 600L780 481L717 513Z" fill="#1e1f22" stroke="#1e1f22"></path><path d="M717 513L780 481L731 428Z" fill="#1e1f22" stroke="#1e1f22"></path><path d="M483 0L437 65L462 96Z" fill="#202327" stroke="#202327"></path><path d="M462 96L437 65L362 206Z" fill="#202327" stroke="#202327"></path><path d="M307 214L204 169L262 265Z" fill="#202327" stroke="#202327"></path><path d="M483 0L462 96L574 0Z" fill="#1f2024" stroke="#1f2024"></path><path d="M781 324L766 177L670 291Z" fill="#1f2024" stroke="#1f2024"></path><path d="M679 181L733 110L571 133Z" fill="#1e2023" stroke="#1e2023"></path><path d="M583 600L670 600L587 522Z" fill="#1e1f22" stroke="#1e1f22"></path><path d="M211 420L291 526L302 393Z" fill="#1e1f22" stroke="#1e1f22"></path><path d="M302 393L291 526L405 427Z" fill="#202327" stroke="#202327"></path><path d="M766 177L733 110L679 181Z" fill="#1f2125" stroke="#1f2125"></path><path d="M780 481L838 407L731 428Z" fill="#1f2024" stroke="#1f2024"></path><path d="M781 324L900 268L766 177Z" fill="#202226" stroke="#202226"></path><path d="M177 298L211 420L302 393Z" fill="#1e1f22" stroke="#1e1f22"></path><path d="M291 526L306 600L397 600Z" fill="#202327" stroke="#202327"></path><path d="M212 600L306 600L291 526Z" fill="#1e2023" stroke="#1e2023"></path><path d="M574 0L462 96L571 133Z" fill="#1e1f23" stroke="#1e1f23"></path><path d="M437 65L277 96L362 206Z" fill="#1f2124" stroke="#1f2124"></path><path d="M211 420L229 523L291 526Z" fill="#1f2124" stroke="#1f2124"></path><path d="M733 110L574 0L571 133Z" fill="#1f2125" stroke="#1f2125"></path><path d="M410 0L277 96L437 65Z" fill="#202327" stroke="#202327"></path><path d="M262 265L177 298L302 393Z" fill="#1f2124" stroke="#1f2124"></path><path d="M204 169L177 298L262 265Z" fill="#1f2125" stroke="#1f2125"></path><path d="M128 600L212 600L229 523Z" fill="#1f2125" stroke="#1f2125"></path><path d="M670 600L765 600L717 513Z" fill="#1f2125" stroke="#1f2125"></path><path d="M900 474L900 411L838 407Z" fill="#1e2023" stroke="#1e2023"></path><path d="M483 0L410 0L437 65Z" fill="#1f2124" stroke="#1f2124"></path><path d="M277 96L204 169L307 214Z" fill="#202327" stroke="#202327"></path><path d="M766 177L784 75L733 110Z" fill="#1f2226" stroke="#1f2226"></path><path d="M733 110L718 0L574 0Z" fill="#202226" stroke="#202226"></path><path d="M900 117L784 75L766 177Z" fill="#1f2124" stroke="#1f2124"></path><path d="M900 474L838 407L780 481Z" fill="#1f2125" stroke="#1f2125"></path><path d="M838 407L900 268L781 324Z" fill="#1e1f23" stroke="#1e1f23"></path><path d="M900 411L900 268L838 407Z" fill="#1e1f22" stroke="#1e1f22"></path><path d="M204 169L138 292L177 298Z" fill="#1f2125" stroke="#1f2125"></path><path d="M177 298L107 429L211 420Z" fill="#1f2124" stroke="#1f2124"></path><path d="M784 75L718 0L733 110Z" fill="#1f2125" stroke="#1f2125"></path><path d="M900 268L900 213L766 177Z" fill="#202327" stroke="#202327"></path><path d="M900 600L900 474L780 481Z" fill="#1f2124" stroke="#1f2124"></path><path d="M229 523L212 600L291 526Z" fill="#1e2023" stroke="#1e2023"></path><path d="M107 429L229 523L211 420Z" fill="#1f2226" stroke="#1f2226"></path><path d="M269 0L199 82L277 96Z" fill="#202327" stroke="#202327"></path><path d="M277 96L199 82L204 169Z" fill="#1e2023" stroke="#1e2023"></path><path d="M204 169L118 173L138 292Z" fill="#1e2023" stroke="#1e2023"></path><path d="M138 292L107 429L177 298Z" fill="#1e1f22" stroke="#1e1f22"></path><path d="M410 0L269 0L277 96Z" fill="#1e2023" stroke="#1e2023"></path><path d="M900 0L791 0L784 75Z" fill="#202327" stroke="#202327"></path><path d="M784 75L791 0L718 0Z" fill="#1e1f22" stroke="#1e1f22"></path><path d="M900 213L900 117L766 177Z" fill="#1e1f22" stroke="#1e1f22"></path><path d="M110 134L118 173L204 169Z" fill="#1e1f22" stroke="#1e1f22"></path><path d="M0 423L67 476L107 429Z" fill="#202327" stroke="#202327"></path><path d="M110 134L204 169L199 82Z" fill="#1f2226" stroke="#1f2226"></path><path d="M765 600L900 600L780 481Z" fill="#1f2125" stroke="#1f2125"></path><path d="M80 0L110 134L199 82Z" fill="#1e1f23" stroke="#1e1f23"></path><path d="M0 423L107 429L138 292Z" fill="#1f2124" stroke="#1f2124"></path><path d="M67 476L128 600L229 523Z" fill="#1f2226" stroke="#1f2226"></path><path d="M0 423L138 292L0 260Z" fill="#1f2125" stroke="#1f2125"></path><path d="M107 429L67 476L229 523Z" fill="#1f2124" stroke="#1f2124"></path><path d="M269 0L177 0L199 82Z" fill="#202327" stroke="#202327"></path><path d="M900 117L900 0L784 75Z" fill="#1f2024" stroke="#1f2024"></path><path d="M0 260L138 292L118 173Z" fill="#1e1f23" stroke="#1e1f23"></path><path d="M67 476L0 600L128 600Z" fill="#1f2024" stroke="#1f2024"></path><path d="M0 200L118 173L110 134Z" fill="#1e1f23" stroke="#1e1f23"></path><path d="M0 200L0 260L118 173Z" fill="#202327" stroke="#202327"></path><path d="M0 423L0 475L67 476Z" fill="#1e2023" stroke="#1e2023"></path><path d="M0 89L0 200L110 134Z" fill="#1e2023" stroke="#1e2023"></path><path d="M177 0L80 0L199 82Z" fill="#202327" stroke="#202327"></path><path d="M80 0L0 89L110 134Z" fill="#1f2125" stroke="#1f2125"></path><path d="M0 475L0 600L67 476Z" fill="#202327" stroke="#202327"></path><path d="M80 0L0 0L0 89Z" fill="#202226" stroke="#202226"></path></g></svg>