<svg id="visual" viewBox="0 0 900 600" width="900" height="600" xmlns="http://www.w3.org/2000/svg" xmlns:xlink="http://www.w3.org/1999/xlink" version="1.1"><path d="M0 169L82 109L164 283L245 271L327 229L409 85L491 199L573 289L655 187L736 109L818 187L900 211L900 0L818 0L736 0L655 0L573 0L491 0L409 0L327 0L245 0L164 0L82 0L0 0Z" fill="#202327"></path><path d="M0 205L82 181L164 325L245 319L327 295L409 169L491 289L573 343L655 241L736 199L818 277L900 295L900 209L818 185L736 107L655 185L573 287L491 197L409 83L327 227L245 269L164 281L82 107L0 167Z" fill="#262a2f"></path><path d="M0 379L82 415L164 433L245 439L327 409L409 379L491 385L573 463L655 451L736 457L818 427L900 475L900 293L818 275L736 197L655 239L573 341L491 287L409 167L327 293L245 317L164 323L82 179L0 203Z" fill="#2d3138"></path><path d="M0 505L82 529L164 547L245 547L327 499L409 505L491 523L573 553L655 505L736 517L818 523L900 535L900 473L818 425L736 455L655 449L573 461L491 383L409 377L327 407L245 437L164 431L82 413L0 377Z" fill="#333840"></path><path d="M0 601L82 601L164 601L245 601L327 601L409 601L491 601L573 601L655 601L736 601L818 601L900 601L900 533L818 521L736 515L655 503L573 551L491 521L409 503L327 497L245 545L164 545L82 527L0 503Z" fill="#3a4049"></path></svg>